OpenSim_Sub09_CSStiffKnee_LCS.mot
version=1
nRows=71
nColumns=11
inDegrees=no
endheader
time	Bot_Shank	2nd_Bot_Shank	2nd_Top_Shank	Top_Shank	Bot_Thigh	Med_Thigh	Top_Thigh	BNOx	BNOy	BNOZ
0	10401.75895508	10562.32193593	11232.80275245	10814.32876179	13311.10377311	14524.25276233	15193.03932737	198.29557384	-76.83561096	157.79328416
0.01000000	10398.73476156	10561.24650733	11232.85850205	10814.00856838	13311.06322100	14523.02537256	15194.10748476	198.25742504	-76.82057339	157.91508242
0.02000000	10396.30558564	10560.06968774	11232.97577053	10813.69304026	13310.97480892	14521.66376576	15194.37141648	198.22192449	-76.80822211	158.03741902
0.03000000	10394.94614035	10558.88115671	11233.14699263	10813.40769278	13310.83647781	14520.28163198	15193.48250801	198.19285627	-76.79957170	158.15738538
0.04000000	10395.13113870	10557.77059380	11233.36460311	10813.17804130	13310.64616858	14518.99266133	15191.09214481	198.17400445	-76.79563671	158.27207292
0.05000000	10397.33529372	10556.82767854	11233.62103674	10813.02960118	13310.40182214	14517.91054386	15186.85171235	198.16915311	-76.79743171	158.37857308
0.06000000	10402.03331841	10556.14209051	11233.90872826	10812.98788777	13310.10137942	14517.14896966	15180.41259609	198.18208633	-76.80597127	158.47397728
0.07000000	10409.63461502	10555.79726589	11234.21836376	10813.07544530	13309.74407567	14516.81225208	15171.49142620	198.21607682	-76.82217516	158.55555806
0.08000000	10419.87434248	10555.81218689	11234.52257679	10813.28414531	13309.34250838	14516.90790281	15160.47839409	198.26911825	-76.84598465	158.62245766
0.09000000	10432.08989232	10556.16781133	11234.78335084	10813.58776408	13308.91715804	14517.38632575	15148.16105614	198.33608991	-76.87676372	158.67492136
0.10000000	10445.61351501	10556.84460556	11234.96253176	10813.95984400	13308.48860701	14518.19718669	15135.33210461	198.41183087	-76.91386891	158.71320867
0.11000000	10459.77746099	10557.82303593	11235.02196540	10814.37392749	13308.07743769	14519.29015143	15122.78423179	198.49118015	-76.95665673	158.73757913
0.12000000	10473.91398072	10559.08356880	11234.92349760	10814.80355694	13307.70423244	14520.61488574	15111.31012992	198.56897681	-77.00448371	158.74829228
0.13000000	10487.35532467	10560.60667052	11234.62897422	10815.22227476	13307.38957364	14522.12105543	15101.70249129	198.64005990	-77.05670639	158.74560763
0.14000000	10499.43374329	10562.37280744	11234.10024111	10815.60362335	13307.15404366	14523.75832627	15094.75400816	198.69926847	-77.11268127	158.72978471
0.15000000	10509.48148703	10564.36244593	11233.29914410	10815.92114511	13307.01822488	14525.47636407	15091.25737280	198.74144155	-77.17176491	158.70108305
0.16000000	10516.88529052	10566.55508933	11232.20074049	10816.15071427	13307.00070288	14527.22472078	15091.91725955	198.76176325	-77.23334013	158.66003313
0.17000000	10521.59436185	10568.92029931	11230.91647729	10816.29227779	13307.09944902	14528.95177322	15096.52967958	198.75897962	-77.29706156	158.60996250
0.18000000	10523.88973829	10571.42177249	11229.63826414	10816.35998432	13307.30027337	14530.60520494	15104.35458154	198.73393812	-77.36274415	158.55584887
0.19000000	10524.05674593	10574.02312968	11228.55905066	10816.36816604	13307.58882883	14532.13269054	15114.64498556	198.68751339	-77.43020492	158.50269127
0.20000000	10522.38071090	10576.68799169	11227.87178645	10816.33115511	13307.95076832	14533.48190460	15126.65391178	198.62058002	-77.49926087	158.45548873
0.21000000	10519.14695929	10579.37997934	11227.76942112	10816.26328374	13308.37174471	14534.60052171	15139.63438031	198.53401266	-77.56972904	158.41924028
0.22000000	10514.64081722	10582.06271343	11228.44490428	10816.17888409	13308.83741093	14535.43621647	15152.83941129	198.42868591	-77.64142643	158.39894495
0.23000000	10509.14761079	10584.69981478	11230.09118555	10816.09228835	13309.33341985	14535.93666346	15165.52202484	198.30547439	-77.71417006	158.39960177
0.24000000	10502.95266611	10587.25490419	11232.90121453	10816.01782870	13309.84542439	14536.04953727	15176.93524109	198.16525272	-77.78777695	158.42620977
0.25000000	10496.34630391	10589.69579715	11237.03253462	10815.96865423	13310.35984279	14535.73249396	15186.38212836	198.00918239	-77.86204146	158.48285248
0.26000000	10489.67040749	10592.03361326	11242.27716895	10815.94570034	13310.87099453	14535.04623429	15193.68243324	197.84138637	-77.93652399	158.56416224
0.27000000	10483.29727930	10594.30501922	11248.21150338	10815.94269697	13311.37786038	14534.11224989	15198.96071478	197.66773474	-78.01064690	158.65919569
0.28000000	10477.59961496	10596.54701193	11254.40913664	10815.95328096	13311.87948135	14533.05281809	15202.34547166	197.49412016	-78.08383081	158.75693740
0.29000000	10472.95011008	10598.79658830	11260.44366750	10815.97108913	13312.37489846	14531.99021623	15203.96520258	197.32643531	-78.15549629	158.84637194
0.30000000	10469.72146027	10601.09074523	11265.88869470	10815.98975830	13312.86315273	14531.04672166	15203.94840624	197.17057285	-78.22506394	158.91648388
0.31000000	10468.28636116	10603.46647962	11270.31781699	10816.00292531	13313.34328517	14530.34461171	15202.42358134	197.03242544	-78.29195436	158.95625779
0.32000000	10469.01750834	10605.96078837	11273.30463314	10816.00422698	13313.81433679	14530.00616372	15199.51922657	196.91788575	-78.35558814	158.95467824
0.33000000	10472.25552511	10608.60494510	11274.44909106	10815.98776634	13314.27426390	14530.14456957	15195.36043411	196.83250089	-78.41540996	158.90150212
0.34000000	10477.86113765	10611.34458614	11273.74540025	10815.95462229	13314.70479220	14530.73707573	15190.02132480	196.77664732	-78.47122515	158.79804233
0.35000000	10485.32564638	10614.05942408	11271.49127359	10815.91124377	13315.07515306	14531.65627765	15183.53678155	196.74672112	-78.52311659	158.65450766
0.36000000	10494.13084882	10616.62747571	11267.99223109	10815.86421785	13315.35425643	14532.77207876	15175.94067798	196.73901599	-78.57117433	158.48133572
0.37000000	10503.75854250	10618.92675782	11263.55379277	10815.82013159	13315.51101229	14533.95438252	15167.26688770	196.74982563	-78.61548841	158.28896411
0.38000000	10513.69052494	10620.83528722	11258.48147865	10815.78557207	13315.51433061	14535.07309237	15157.54928430	196.77544375	-78.65614887	158.08783045
0.39000000	10523.40859365	10622.23108070	11253.08080876	10815.76712636	13315.33312134	14535.99811176	15146.82174140	196.81216403	-78.69324576	157.88837235
0.40000000	10532.39454616	10622.99215506	11247.65730312	10815.77138152	13314.93629446	14536.59934415	15135.11813260	196.85628019	-78.72686912	157.70102741
0.41000000	10540.13017999	10622.99652709	11242.51648175	10815.80492463	13314.29275993	14536.74669297	15122.47233150	196.90408591	-78.75710899	157.53623325
0.42000000	10546.09729266	10622.12221359	11237.96386468	10815.87434275	13313.37142772	14536.31006168	15108.91821171	196.95187490	-78.78405541	157.40442748
0.43000000	10549.77768169	10620.24723136	11234.30497192	10815.98622296	13312.14120778	14535.15935373	15094.48964683	196.99594086	-78.80779842	157.31604770
0.44000000	10550.78086311	10617.29600503	11231.78461789	10816.15452142	13310.58702267	14533.20438920	15079.27277315	197.03344102	-78.82823879	157.28159552
0.45000000	10549.40715414	10613.44396904	11230.31927378	10816.43305205	13308.78040339	14530.57088847	15063.63640422	197.06620330	-78.84425347	157.31191862
0.46000000	10546.18935825	10608.95103410	11229.71490827	10816.88904276	13306.82202864	14527.45723225	15048.04448742	197.09762749	-78.85437490	157.41798116
0.47000000	10541.66045407	10604.07717459	11229.77740675	10817.58973156	13304.81259912	14524.06185601	15032.96104184	197.13111459	-78.85713522	157.61074741
0.48000000	10536.35342028	10599.08236488	11230.31265461	10818.60235645	13302.85281551	14520.58319521	15018.85008657	197.17006560	-78.85106659	157.90118161
0.49000000	10530.80123551	10594.22657935	11231.12653727	10819.99415544	13301.04337849	14517.21968533	15006.17564067	197.21788149	-78.83470116	158.30024801
0.50000000	10525.53687843	10589.76979238	11232.02494010	10821.83236655	13299.48498873	14514.16976181	14995.40172323	197.27796327	-78.80657109	158.81891087
0.51000000	10521.09332768	10585.97197833	11232.81374852	10824.18422778	13298.27834694	14511.63186014	14986.99235334	197.35371192	-78.76520854	159.46813444
0.52000000	10517.95836291	10583.06804773	11233.32093365	10827.10552092	13297.51471578	14509.78592204	14981.35816613	197.44804703	-78.70936922	160.25597315
0.53000000	10516.15314665	10581.03416168	11233.60247128	10830.53375832	13297.18792366	14508.62096699	14978.35868135	197.55891845	-78.64011670	161.16044163
0.54000000	10515.42356232	10579.69383293	11233.84884770	10834.33667967	13297.23431799	14508.01338061	14977.52829026	197.68134411	-78.55987609	162.14183260
0.55000000	10515.51193545	10578.86860132	11234.25228772	10838.38112284	13297.58950324	14507.83809274	14978.39718190	197.81030406	-78.47109009	163.16020975
0.56000000	10516.16059153	10578.38000667	11235.00501615	10842.53392572	13298.18908390	14507.97003322	14980.49554528	197.94077834	-78.37620139	164.17563676
0.57000000	10517.11185609	10578.04958880	11236.29925783	10846.66192622	13298.96866442	14508.28413189	14983.35356943	198.06774702	-78.27765269	165.14817731
0.58000000	10518.10805461	10577.69888753	11238.32723756	10850.63196221	13299.86384930	14508.65531857	14986.50144338	198.18619012	-78.17788670	166.03789508
0.59000000	10518.89151262	10577.14944269	11241.28118015	10854.31087158	13300.81024301	14508.95852312	14989.46935615	198.29108770	-78.07934611	166.80485375
0.60000000	10519.23288051	10576.24598799	11245.32533063	10857.58301279	13301.74735321	14509.08342123	14991.83354719	198.37803301	-77.98412350	167.41549588
0.61000000	10519.11214737	10575.00467451	11250.41714575	10860.46223216	13302.64353467	14509.02866968	14993.51059735	198.44715124	-77.89172384	167.88340779
0.62000000	10518.60312854	10573.51848310	11256.42139918	10863.02041286	13303.48007151	14508.84177091	14994.56962949	198.50059880	-77.80049231	168.24330580
0.63000000	10517.78008188	10571.88075701	11263.20242737	10865.32971185	13304.23830881	14508.57045778	14995.08048601	198.54054170	-77.70876864	168.53000592
0.64000000	10516.71726531	10570.18483950	11270.62456682	10867.46228606	13304.89959168	14508.26246313	14995.11300933	198.56914592	-77.61489255	168.77832413
0.65000000	10515.48893671	10568.52407382	11278.55215398	10869.49029243	13305.44526521	14507.96551979	14994.73704183	198.58857747	-77.51720375	169.02307643
0.66000000	10514.16935398	10566.99180323	11286.84952534	10871.48588790	13305.85667451	14507.72736062	14994.02242594	198.60100235	-77.41404197	169.29907880
0.67000000	10512.83277500	10565.68137097	11295.38101737	10873.52122941	13306.11516466	14507.59571846	14993.03900405	198.60858655	-77.30374693	169.64114725
0.68000000	10511.55345767	10564.68612030	11304.01096653	10875.66847390	13306.20208077	14507.61832615	14991.85661857	198.61349607	-77.18465834	170.08409776
0.69000000	10510.40565988	10564.09939448	11312.60370931	10877.99977831	13306.09876794	14507.84291653	14990.54511190	198.61789691	-77.05511594	170.66274633
0.70000000	10509.46044481	10564.00778112	11321.02319614	10880.58591653	13305.78636857	14508.30918973	14989.17194767	198.62398411	-76.91357887	171.40729021
